<svg width="520" height="350" viewBox="0 0 520 350" fill="none" xmlns="http://www.w3.org/2000/svg">
<g id="texterCoverDark">
<rect width="520" height="350" fill="#0D1117"/>
<g id="texter ">
<path id="TEXTER" d="M86.024 213V160.872H65.384V145.8H125.576V160.872H105.032V213H86.024ZM150.13 171.816H181.33V186.024H150.13V171.816ZM151.474 198.312H186.61V213H132.658V145.8H185.362V160.488H151.474V198.312ZM189.683 213L219.059 172.2L218.963 185.736L190.739 145.8H212.147L230.195 171.816L221.075 171.912L238.835 145.8H259.379L231.155 184.968V171.528L260.915 213H239.027L220.691 185.64H229.427L211.379 213H189.683ZM278.774 213V160.872H258.134V145.8H318.326V160.872H297.782V213H278.774ZM342.88 171.816H374.08V186.024H342.88V171.816ZM344.224 198.312H379.36V213H325.408V145.8H378.112V160.488H344.224V198.312ZM389.908 213V145.8H420.628C426.772 145.8 432.052 146.792 436.468 148.776C440.948 150.76 444.404 153.64 446.836 157.416C449.268 161.128 450.484 165.544 450.484 170.664C450.484 175.72 449.268 180.104 446.836 183.816C444.404 187.464 440.948 190.28 436.468 192.264C432.052 194.184 426.772 195.144 420.628 195.144H400.468L408.916 187.176V213H389.908ZM431.476 213L414.772 188.52H435.028L451.828 213H431.476ZM408.916 189.192L400.468 180.456H419.476C423.444 180.456 426.388 179.592 428.308 177.864C430.292 176.136 431.284 173.736 431.284 170.664C431.284 167.528 430.292 165.096 428.308 163.368C426.388 161.64 423.444 160.776 419.476 160.776H400.468L408.916 152.04V189.192Z" fill="white"/>
<rect id="Rectangle 1" x="133" y="197.487" width="78" height="16" fill="white"/>
<rect id="Rectangle 2" x="239" y="145.154" width="80" height="16" fill="white"/>
</g>
<path id="bad text" d="M69.4421 42.288C67.8848 42.288 66.5835 41.968 65.5381 41.328C64.5141 40.688 63.7461 39.7067 63.2341 38.384C62.7221 37.0613 62.4661 35.3653 62.4661 33.296C62.4661 31.2693 62.7328 29.5947 63.2661 28.272C63.8208 26.9493 64.6208 25.968 65.6661 25.328C66.7115 24.688 67.9701 24.368 69.4421 24.368C71.0208 24.368 72.4501 24.7307 73.7301 25.456C75.0315 26.1813 76.0555 27.216 76.8021 28.56C77.5701 29.8827 77.9541 31.4613 77.9541 33.296C77.9541 35.152 77.5701 36.752 76.8021 38.096C76.0555 39.4187 75.0315 40.4533 73.7301 41.2C72.4501 41.9253 71.0208 42.288 69.4421 42.288ZM58.5301 42V18.256H64.6101V27.568L64.2901 33.296L64.3221 39.024V42H58.5301ZM68.1621 37.456C68.8448 37.456 69.4528 37.296 69.9861 36.976C70.5408 36.656 70.9781 36.1867 71.2981 35.568C71.6395 34.928 71.8101 34.1707 71.8101 33.296C71.8101 32.4213 71.6395 31.6853 71.2981 31.088C70.9781 30.4693 70.5408 30 69.9861 29.68C69.4528 29.36 68.8448 29.2 68.1621 29.2C67.4795 29.2 66.8608 29.36 66.3061 29.68C65.7728 30 65.3355 30.4693 64.9941 31.088C64.6741 31.6853 64.5141 32.4213 64.5141 33.296C64.5141 34.1707 64.6741 34.928 64.9941 35.568C65.3355 36.1867 65.7728 36.656 66.3061 36.976C66.8608 37.296 67.4795 37.456 68.1621 37.456ZM90.9971 42V38.768L90.5811 37.968V32.016C90.5811 31.056 90.2825 30.32 89.6851 29.808C89.1091 29.2747 88.1811 29.008 86.9011 29.008C86.0691 29.008 85.2265 29.1467 84.3731 29.424C83.5198 29.68 82.7945 30.0427 82.1971 30.512L80.1491 26.384C81.1305 25.744 82.3038 25.2533 83.6691 24.912C85.0558 24.5493 86.4318 24.368 87.7971 24.368C90.6131 24.368 92.7891 25.0187 94.3251 26.32C95.8825 27.6 96.6611 29.616 96.6611 32.368V42H90.9971ZM85.8771 42.288C84.4905 42.288 83.3171 42.0533 82.3571 41.584C81.3971 41.1147 80.6611 40.4747 80.1491 39.664C79.6585 38.8533 79.4131 37.9467 79.4131 36.944C79.4131 35.8773 79.6798 34.96 80.2131 34.192C80.7678 33.4027 81.6105 32.8053 82.7411 32.4C83.8718 31.9733 85.3331 31.76 87.1251 31.76H91.2211V34.928H87.9571C86.9758 34.928 86.2825 35.088 85.8771 35.408C85.4931 35.728 85.3011 36.1547 85.3011 36.688C85.3011 37.2213 85.5038 37.648 85.9091 37.968C86.3145 38.288 86.8691 38.448 87.5731 38.448C88.2345 38.448 88.8318 38.288 89.3651 37.968C89.9198 37.6267 90.3251 37.1147 90.5811 36.432L91.4131 38.672C91.0931 39.8667 90.4638 40.7733 89.5251 41.392C88.6078 41.9893 87.3918 42.288 85.8771 42.288ZM108.27 42.288C106.691 42.288 105.251 41.9253 103.95 41.2C102.67 40.4533 101.646 39.4187 100.878 38.096C100.11 36.752 99.7256 35.152 99.7256 33.296C99.7256 31.4613 100.11 29.8827 100.878 28.56C101.646 27.216 102.67 26.1813 103.95 25.456C105.251 24.7307 106.691 24.368 108.27 24.368C109.763 24.368 111.022 24.688 112.046 25.328C113.091 25.968 113.88 26.9493 114.414 28.272C114.947 29.5947 115.214 31.2693 115.214 33.296C115.214 35.3653 114.958 37.0613 114.446 38.384C113.934 39.7067 113.166 40.688 112.142 41.328C111.118 41.968 109.827 42.288 108.27 42.288ZM109.55 37.456C110.232 37.456 110.84 37.296 111.374 36.976C111.928 36.656 112.366 36.1867 112.686 35.568C113.006 34.928 113.166 34.1707 113.166 33.296C113.166 32.4213 113.006 31.6853 112.686 31.088C112.366 30.4693 111.928 30 111.374 29.68C110.84 29.36 110.232 29.2 109.55 29.2C108.846 29.2 108.216 29.36 107.662 29.68C107.128 30 106.702 30.4693 106.382 31.088C106.062 31.6853 105.902 32.4213 105.902 33.296C105.902 34.1707 106.062 34.928 106.382 35.568C106.702 36.1867 107.128 36.656 107.662 36.976C108.216 37.296 108.846 37.456 109.55 37.456ZM113.358 42V39.024L113.39 33.296L113.07 27.568V18.256H119.15V42H113.358ZM140.118 42.288C137.899 42.288 136.171 41.744 134.934 40.656C133.697 39.5467 133.078 37.8827 133.078 35.664V20.784H139.158V35.6C139.158 36.2187 139.329 36.7093 139.67 37.072C140.011 37.4133 140.449 37.584 140.982 37.584C141.707 37.584 142.326 37.4027 142.838 37.04L144.342 41.296C143.83 41.6373 143.201 41.8827 142.454 42.032C141.707 42.2027 140.929 42.288 140.118 42.288ZM130.55 29.84V25.296H143.126V29.84H130.55ZM155.274 42.288C153.226 42.288 151.434 41.904 149.898 41.136C148.384 40.3467 147.2 39.28 146.346 37.936C145.514 36.5707 145.098 35.024 145.098 33.296C145.098 31.568 145.504 30.032 146.314 28.688C147.146 27.3227 148.288 26.2667 149.738 25.52C151.189 24.752 152.821 24.368 154.634 24.368C156.341 24.368 157.898 24.72 159.306 25.424C160.714 26.1067 161.834 27.12 162.666 28.464C163.498 29.808 163.914 31.44 163.914 33.36C163.914 33.5733 163.904 33.8187 163.882 34.096C163.861 34.3733 163.84 34.6293 163.818 34.864H150.09V31.664H160.586L158.282 32.56C158.304 31.7707 158.154 31.088 157.834 30.512C157.536 29.936 157.109 29.488 156.554 29.168C156.021 28.848 155.392 28.688 154.666 28.688C153.941 28.688 153.301 28.848 152.746 29.168C152.213 29.488 151.797 29.9467 151.498 30.544C151.2 31.12 151.05 31.8027 151.05 32.592V33.52C151.05 34.3733 151.221 35.1093 151.562 35.728C151.925 36.3467 152.437 36.8267 153.098 37.168C153.76 37.488 154.549 37.648 155.466 37.648C156.32 37.648 157.045 37.5307 157.642 37.296C158.261 37.04 158.869 36.656 159.466 36.144L162.666 39.472C161.834 40.3893 160.81 41.0933 159.594 41.584C158.378 42.0533 156.938 42.288 155.274 42.288ZM164.233 42L172.201 31.536L172.073 34.992L164.425 24.656H171.273L175.561 30.768L173.001 30.896L177.545 24.656H183.977L176.329 34.768V31.44L184.201 42H177.257L172.777 35.472L175.337 35.824L170.825 42H164.233ZM193.805 42.288C191.587 42.288 189.859 41.744 188.621 40.656C187.384 39.5467 186.765 37.8827 186.765 35.664V20.784H192.845V35.6C192.845 36.2187 193.016 36.7093 193.357 37.072C193.699 37.4133 194.136 37.584 194.669 37.584C195.395 37.584 196.013 37.4027 196.525 37.04L198.029 41.296C197.517 41.6373 196.888 41.8827 196.141 42.032C195.395 42.2027 194.616 42.288 193.805 42.288ZM184.237 29.84V25.296H196.813V29.84H184.237Z" fill="white"/>
<path id="good text" d="M310.51 336.496C308.846 336.496 307.257 336.304 305.742 335.92C304.249 335.536 302.969 334.971 301.902 334.224L304.11 329.968C304.835 330.544 305.731 330.992 306.798 331.312C307.886 331.653 308.942 331.824 309.966 331.824C311.609 331.824 312.793 331.461 313.518 330.736C314.243 330.032 314.606 328.997 314.606 327.632V325.584L314.926 320.72L314.894 315.824V312.656H320.686V326.832C320.686 330.117 319.801 332.549 318.03 334.128C316.259 335.707 313.753 336.496 310.51 336.496ZM309.454 329.104C307.918 329.104 306.499 328.763 305.198 328.08C303.918 327.376 302.883 326.405 302.094 325.168C301.326 323.909 300.942 322.427 300.942 320.72C300.942 319.013 301.326 317.541 302.094 316.304C302.883 315.045 303.918 314.075 305.198 313.392C306.499 312.709 307.918 312.368 309.454 312.368C310.926 312.368 312.185 312.667 313.23 313.264C314.275 313.84 315.065 314.747 315.598 315.984C316.153 317.221 316.43 318.8 316.43 320.72C316.43 322.64 316.153 324.219 315.598 325.456C315.065 326.693 314.275 327.611 313.23 328.208C312.185 328.805 310.926 329.104 309.454 329.104ZM310.894 324.272C311.619 324.272 312.259 324.123 312.814 323.824C313.39 323.525 313.838 323.109 314.158 322.576C314.499 322.043 314.67 321.424 314.67 320.72C314.67 320.016 314.499 319.397 314.158 318.864C313.838 318.331 313.39 317.925 312.814 317.648C312.259 317.349 311.619 317.2 310.894 317.2C310.169 317.2 309.518 317.349 308.942 317.648C308.366 317.925 307.907 318.331 307.566 318.864C307.246 319.397 307.086 320.016 307.086 320.72C307.086 321.424 307.246 322.043 307.566 322.576C307.907 323.109 308.366 323.525 308.942 323.824C309.518 324.123 310.169 324.272 310.894 324.272ZM333.297 330.288C331.398 330.288 329.713 329.904 328.241 329.136C326.769 328.368 325.606 327.312 324.753 325.968C323.921 324.603 323.505 323.045 323.505 321.296C323.505 319.547 323.921 318 324.753 316.656C325.606 315.312 326.769 314.267 328.241 313.52C329.713 312.752 331.398 312.368 333.297 312.368C335.195 312.368 336.881 312.752 338.353 313.52C339.846 314.267 341.009 315.312 341.841 316.656C342.673 318 343.089 319.547 343.089 321.296C343.089 323.045 342.673 324.603 341.841 325.968C341.009 327.312 339.846 328.368 338.353 329.136C336.881 329.904 335.195 330.288 333.297 330.288ZM333.297 325.456C334.001 325.456 334.619 325.296 335.153 324.976C335.707 324.656 336.145 324.187 336.465 323.568C336.785 322.928 336.945 322.171 336.945 321.296C336.945 320.421 336.785 319.685 336.465 319.088C336.145 318.469 335.707 318 335.153 317.68C334.619 317.36 334.001 317.2 333.297 317.2C332.614 317.2 331.995 317.36 331.441 317.68C330.907 318 330.47 318.469 330.129 319.088C329.809 319.685 329.649 320.421 329.649 321.296C329.649 322.171 329.809 322.928 330.129 323.568C330.47 324.187 330.907 324.656 331.441 324.976C331.995 325.296 332.614 325.456 333.297 325.456ZM354.609 330.288C352.71 330.288 351.025 329.904 349.553 329.136C348.081 328.368 346.918 327.312 346.065 325.968C345.233 324.603 344.817 323.045 344.817 321.296C344.817 319.547 345.233 318 346.065 316.656C346.918 315.312 348.081 314.267 349.553 313.52C351.025 312.752 352.71 312.368 354.609 312.368C356.508 312.368 358.193 312.752 359.665 313.52C361.158 314.267 362.321 315.312 363.153 316.656C363.985 318 364.401 319.547 364.401 321.296C364.401 323.045 363.985 324.603 363.153 325.968C362.321 327.312 361.158 328.368 359.665 329.136C358.193 329.904 356.508 330.288 354.609 330.288ZM354.609 325.456C355.313 325.456 355.932 325.296 356.465 324.976C357.02 324.656 357.457 324.187 357.777 323.568C358.097 322.928 358.257 322.171 358.257 321.296C358.257 320.421 358.097 319.685 357.777 319.088C357.457 318.469 357.02 318 356.465 317.68C355.932 317.36 355.313 317.2 354.609 317.2C353.926 317.2 353.308 317.36 352.753 317.68C352.22 318 351.782 318.469 351.441 319.088C351.121 319.685 350.961 320.421 350.961 321.296C350.961 322.171 351.121 322.928 351.441 323.568C351.782 324.187 352.22 324.656 352.753 324.976C353.308 325.296 353.926 325.456 354.609 325.456ZM374.77 330.288C373.191 330.288 371.751 329.925 370.45 329.2C369.17 328.453 368.146 327.419 367.378 326.096C366.61 324.752 366.226 323.152 366.226 321.296C366.226 319.461 366.61 317.883 367.378 316.56C368.146 315.216 369.17 314.181 370.45 313.456C371.751 312.731 373.191 312.368 374.77 312.368C376.263 312.368 377.522 312.688 378.546 313.328C379.591 313.968 380.38 314.949 380.914 316.272C381.447 317.595 381.714 319.269 381.714 321.296C381.714 323.365 381.458 325.061 380.946 326.384C380.434 327.707 379.666 328.688 378.642 329.328C377.618 329.968 376.327 330.288 374.77 330.288ZM376.05 325.456C376.732 325.456 377.34 325.296 377.874 324.976C378.428 324.656 378.866 324.187 379.186 323.568C379.506 322.928 379.666 322.171 379.666 321.296C379.666 320.421 379.506 319.685 379.186 319.088C378.866 318.469 378.428 318 377.874 317.68C377.34 317.36 376.732 317.2 376.05 317.2C375.346 317.2 374.716 317.36 374.162 317.68C373.628 318 373.202 318.469 372.882 319.088C372.562 319.685 372.402 320.421 372.402 321.296C372.402 322.171 372.562 322.928 372.882 323.568C373.202 324.187 373.628 324.656 374.162 324.976C374.716 325.296 375.346 325.456 376.05 325.456ZM379.858 330V327.024L379.89 321.296L379.57 315.568V306.256H385.65V330H379.858ZM406.618 330.288C404.399 330.288 402.671 329.744 401.434 328.656C400.197 327.547 399.578 325.883 399.578 323.664V308.784H405.658V323.6C405.658 324.219 405.829 324.709 406.17 325.072C406.511 325.413 406.949 325.584 407.482 325.584C408.207 325.584 408.826 325.403 409.338 325.04L410.842 329.296C410.33 329.637 409.701 329.883 408.954 330.032C408.207 330.203 407.429 330.288 406.618 330.288ZM397.05 317.84V313.296H409.626V317.84H397.05ZM421.774 330.288C419.726 330.288 417.934 329.904 416.398 329.136C414.884 328.347 413.7 327.28 412.846 325.936C412.014 324.571 411.598 323.024 411.598 321.296C411.598 319.568 412.004 318.032 412.814 316.688C413.646 315.323 414.788 314.267 416.238 313.52C417.689 312.752 419.321 312.368 421.134 312.368C422.841 312.368 424.398 312.72 425.806 313.424C427.214 314.107 428.334 315.12 429.166 316.464C429.998 317.808 430.414 319.44 430.414 321.36C430.414 321.573 430.404 321.819 430.382 322.096C430.361 322.373 430.34 322.629 430.318 322.864H416.59V319.664H427.086L424.782 320.56C424.804 319.771 424.654 319.088 424.334 318.512C424.036 317.936 423.609 317.488 423.054 317.168C422.521 316.848 421.892 316.688 421.166 316.688C420.441 316.688 419.801 316.848 419.246 317.168C418.713 317.488 418.297 317.947 417.998 318.544C417.7 319.12 417.55 319.803 417.55 320.592V321.52C417.55 322.373 417.721 323.109 418.062 323.728C418.425 324.347 418.937 324.827 419.598 325.168C420.26 325.488 421.049 325.648 421.966 325.648C422.82 325.648 423.545 325.531 424.142 325.296C424.761 325.04 425.369 324.656 425.966 324.144L429.166 327.472C428.334 328.389 427.31 329.093 426.094 329.584C424.878 330.053 423.438 330.288 421.774 330.288ZM430.733 330L438.701 319.536L438.573 322.992L430.925 312.656H437.773L442.061 318.768L439.501 318.896L444.045 312.656H450.477L442.829 322.768V319.44L450.701 330H443.757L439.277 323.472L441.837 323.824L437.325 330H430.733ZM460.305 330.288C458.087 330.288 456.359 329.744 455.121 328.656C453.884 327.547 453.265 325.883 453.265 323.664V308.784H459.345V323.6C459.345 324.219 459.516 324.709 459.857 325.072C460.199 325.413 460.636 325.584 461.169 325.584C461.895 325.584 462.513 325.403 463.025 325.04L464.529 329.296C464.017 329.637 463.388 329.883 462.641 330.032C461.895 330.203 461.116 330.288 460.305 330.288ZM450.737 317.84V313.296H463.313V317.84H450.737Z" fill="white"/>
<g id="]">
<rect id="Rectangle 14" x="10" y="30" width="12" height="150" fill="white"/>
<rect id="Rectangle 15" x="10" y="30" width="35" height="12" fill="white"/>
<rect id="Rectangle 16" x="10" y="168" width="35" height="12" fill="white"/>
</g>
<g id="[">
<rect id="Rectangle 14_2" x="510" y="330" width="12" height="150" transform="rotate(-180 510 330)" fill="white"/>
<rect id="Rectangle 15_2" x="510" y="330" width="35" height="12" transform="rotate(-180 510 330)" fill="white"/>
<rect id="Rectangle 16_2" x="510" y="192" width="35" height="12" transform="rotate(-180 510 192)" fill="white"/>
</g>
</g>
</svg>
